<svg xmlns="http://www.w3.org/2000/svg" width="32.523" height="32.523" viewBox="0 0 32.523 32.523">
  <path id="Send" d="M.649,22.328a2.223,2.223,0,0,0,2.22.579l18.509-5.382a2.207,2.207,0,0,0,1.591-1.749,2.591,2.591,0,0,0-1.153-2.418L16.029,9.8a1.5,1.5,0,0,0-1.851.222L7.551,16.691a.844.844,0,0,1-1.219,0,.877.877,0,0,1,0-1.227L12.97,8.795a1.522,1.522,0,0,0,.222-1.861L9.656,1.088A2.2,2.2,0,0,0,7.747,0a2.389,2.389,0,0,0-.288.012,2.242,2.242,0,0,0-1.875,1.6L.1,20.094a2.259,2.259,0,0,0,.552,2.234" transform="translate(16.261 32.523) rotate(-135)" fill="#0199ec"/>
</svg>
