<svg xmlns="http://www.w3.org/2000/svg" width="28.884" height="35.564" viewBox="0 0 28.884 35.564">
  <g id="delete" transform="translate(0.003 0.001)">
    <path id="Path_54537" data-name="Path 54537" d="M222.986,154.7c-.325,0-.588.418-.588.935V173.3c0,.516.263.935.588.935s.588-.419.588-.935V155.638C223.574,155.121,223.311,154.7,222.986,154.7Zm0,0" transform="translate(-203.545 -142.397)" fill="#f7227f"/>
    <path id="Path_54538" data-name="Path 54538" d="M104.986,154.7c-.325,0-.588.418-.588.935V173.3c0,.516.263.935.588.935s.588-.419.588-.935V155.638C105.574,155.121,105.311,154.7,104.986,154.7Zm0,0" transform="translate(-95.55 -142.397)" fill="#f7227f"/>
    <path id="Path_54539" data-name="Path 54539" d="M2.362,10.586v20.52a4.6,4.6,0,0,0,1.222,3.169A4.1,4.1,0,0,0,6.56,35.562H22.318a4.1,4.1,0,0,0,2.976-1.287,4.6,4.6,0,0,0,1.222-3.169V10.586A3.182,3.182,0,0,0,25.7,4.33H21.435V3.288A3.272,3.272,0,0,0,18.137,0h-7.4a3.272,3.272,0,0,0-3.3,3.29V4.33H3.178a3.182,3.182,0,0,0-.816,6.257ZM22.318,33.9H6.56a2.638,2.638,0,0,1-2.532-2.79V10.659H24.85V31.106a2.638,2.638,0,0,1-2.532,2.79ZM9.108,3.288a1.6,1.6,0,0,1,1.633-1.624h7.4a1.6,1.6,0,0,1,1.633,1.624V4.33H9.108ZM3.178,6H25.7a1.5,1.5,0,1,1,0,3H3.178a1.5,1.5,0,0,1,0-3Zm0,0" transform="translate(0 0)" fill="#f7227f"/>
    <path id="Path_54540" data-name="Path 54540" d="M163.986,154.7c-.325,0-.588.418-.588.935V173.3c0,.516.263.935.588.935s.588-.419.588-.935V155.638C164.574,155.121,164.311,154.7,163.986,154.7Zm0,0" transform="translate(-149.547 -142.397)" fill="#f7227f"/>
  </g>
</svg>
