<svg xmlns="http://www.w3.org/2000/svg" width="20" height="20" viewBox="0 0 20 20">
  <g id="Image_2" data-name="Image 2" transform="translate(0 0)">
    <path id="Image_2-2" data-name="Image 2" d="M5.666,0a5.5,5.5,0,0,0-4.11,1.651A6.046,6.046,0,0,0,0,5.917v8.167a6.043,6.043,0,0,0,1.559,4.265A5.5,5.5,0,0,0,5.666,20h8.667a5.5,5.5,0,0,0,4.11-1.651A6.046,6.046,0,0,0,20,14.083V5.917a6.046,6.046,0,0,0-1.556-4.266A5.5,5.5,0,0,0,14.333,0Zm0,1.5h8.666a4.042,4.042,0,0,1,3.038,1.2A4.582,4.582,0,0,1,18.5,5.917v.768l-.049.043c-.1.1-.216.2-.35.329l-.7.673a8.48,8.48,0,0,1-1.544,1.246,1.6,1.6,0,0,1-2.185-.58l-.125-.168c-.041-.059-.084-.12-.13-.189l-.391-.621A5.174,5.174,0,0,0,11.03,5.241,2.533,2.533,0,0,0,8.24,5.4L7.8,5.672l-.368.238a3.456,3.456,0,0,1-.506.27c-.67.281-1.266-.03-2.089-1.005L3.032,2.968l-.3-.366A4.076,4.076,0,0,1,5.666,1.5ZM1.5,14.083V5.917a5.326,5.326,0,0,1,.36-2l1.15,1.4.508.626C4.8,7.525,5.973,8.21,7.509,7.566A4.722,4.722,0,0,0,8.2,7.205l.661-.427c.66-.418.974-.478,1.456-.217A3.286,3.286,0,0,1,11.5,7.823l.3.478.2.328a8.341,8.341,0,0,0,.474.688,3.089,3.089,0,0,0,4.151.948,9.941,9.941,0,0,0,1.867-1.5v5.322a4.574,4.574,0,0,1-1.126,3.211,4.037,4.037,0,0,1-3.038,1.2H5.666C3.137,18.5,1.5,16.764,1.5,14.083ZM4.271,13.2a2.6,2.6,0,1,0,2.6-2.6A2.6,2.6,0,0,0,4.271,13.2Zm1.5,0a1.1,1.1,0,1,1,1.1,1.1A1.1,1.1,0,0,1,5.774,13.2Z" transform="translate(20 20) rotate(180)" fill="#2a2d37"/>
  </g>
</svg>
