<svg xmlns="http://www.w3.org/2000/svg" width="20.353" height="28.075" viewBox="0 0 20.353 28.075">
  <g id="_x34_5.Google_Voice_Assistant" transform="translate(-21.004 -10)">
    <path id="Path_54541" data-name="Path 54541" d="M42.49,27.911a4.061,4.061,0,0,1-4.061-4.061V14.061a4.061,4.061,0,1,1,8.121,0V23.85A4.06,4.06,0,0,1,42.49,27.911Z" transform="translate(-11.31)" fill="#4183f3"/>
    <path id="Path_54542" data-name="Path 54542" d="M45.456,74.451h3.189v5.457H45.456Z" transform="translate(-15.871 -41.833)" fill="#1680b9"/>
    <path id="Union_5" data-name="Union 5" d="M3.279,7.481A10.148,10.148,0,0,1,0,0H3.19A7.032,7.032,0,0,0,5.526,5.234h0a6.931,6.931,0,0,0,4.649,1.79A7.017,7.017,0,0,0,17.162,0h3.191A10.177,10.177,0,0,1,10.176,10.176,10.144,10.144,0,0,1,3.279,7.481Z" transform="translate(21.004 23.838)" fill="#f7227f"/>
  </g>
</svg>
