<svg xmlns="http://www.w3.org/2000/svg" width="17.1" height="10.7" viewBox="0 0 17.1 10.7">
  <path id="Combined_Shape" data-name="Combined Shape" d="M15.3,10.7a1.2,1.2,0,0,1-1.2-1.2V1.2A1.2,1.2,0,0,1,15.3,0h.6a1.2,1.2,0,0,1,1.2,1.2V9.5a1.2,1.2,0,0,1-1.2,1.2Zm-4.7,0A1.2,1.2,0,0,1,9.4,9.5V3.6a1.2,1.2,0,0,1,1.2-1.2h.6a1.2,1.2,0,0,1,1.2,1.2V9.5a1.2,1.2,0,0,1-1.2,1.2ZM6,10.7A1.2,1.2,0,0,1,4.8,9.5V5.9A1.2,1.2,0,0,1,6,4.7h.6A1.2,1.2,0,0,1,7.8,5.9V9.5a1.2,1.2,0,0,1-1.2,1.2Zm-4.8,0A1.2,1.2,0,0,1,0,9.5V7.9A1.2,1.2,0,0,1,1.2,6.7h.6A1.2,1.2,0,0,1,3,7.9V9.5a1.2,1.2,0,0,1-1.2,1.2Z" fill="#2d2d2d"/>
</svg>
