<svg xmlns="http://www.w3.org/2000/svg" width="24.5" height="11.5" viewBox="0 0 24.5 11.5">
  <g id="Battery" transform="translate(0 -0.56)">
    <path id="Rectangle" d="M3.589,11.5a4.057,4.057,0,0,1-2.156-.374A2.543,2.543,0,0,1,.374,10.067,4.05,4.05,0,0,1,0,7.911V3.589A4.048,4.048,0,0,1,.374,1.433,2.543,2.543,0,0,1,1.433.374,4.048,4.048,0,0,1,3.589,0H18.41a4.052,4.052,0,0,1,2.157.374,2.543,2.543,0,0,1,1.058,1.058A4.059,4.059,0,0,1,22,3.589V7.911a4.061,4.061,0,0,1-.374,2.156,2.543,2.543,0,0,1-1.058,1.058,4.061,4.061,0,0,1-2.157.374ZM23,3.69s1.5.763,1.5,2-1.5,2-1.5,2Z" transform="translate(0 0.56)" fill="rgba(0,0,0,0.36)"/>
    <rect id="Rectangle-2" data-name="Rectangle" width="18" height="7.667" rx="1.6" transform="translate(2 2.477)" fill="#2d2d2d"/>
  </g>
</svg>
