<svg xmlns="http://www.w3.org/2000/svg" width="15.4" height="11.057" viewBox="0 0 15.4 11.057">
  <path id="Wi-Fi" d="M7.7,11.057a.315.315,0,0,1-.223-.094L5.462,8.932a.317.317,0,0,1,.01-.461,3.451,3.451,0,0,1,4.457,0,.312.312,0,0,1,.1.228.319.319,0,0,1-.094.233L7.924,10.964A.315.315,0,0,1,7.7,11.057ZM11.237,7.49a.309.309,0,0,1-.215-.086,4.945,4.945,0,0,0-6.641,0A.312.312,0,0,1,3.945,7.4L2.78,6.222a.325.325,0,0,1,0-.463,7.22,7.22,0,0,1,9.834,0,.325.325,0,0,1,0,.463L11.459,7.4A.31.31,0,0,1,11.237,7.49ZM13.92,4.783a.308.308,0,0,1-.217-.088,8.714,8.714,0,0,0-12.006,0,.311.311,0,0,1-.217.088.306.306,0,0,1-.22-.092L.094,3.515a.325.325,0,0,1,0-.46,10.989,10.989,0,0,1,15.205,0,.324.324,0,0,1,0,.46L14.14,4.691A.306.306,0,0,1,13.92,4.783Z" transform="translate(0 0)" fill="#2d2d2d"/>
</svg>
